<svg width="111" height="116" viewBox="0 0 111 116" fill="none" xmlns="http://www.w3.org/2000/svg">
<g clip-path="url(#clip0_3709_602)">
<path d="M30.16 101.88C19.36 101.05 10.78 96.3399 5.10003 86.9299C-0.439975 77.5199 -0.299975 67.8299 4.27003 58.1399C-5.83997 38.4799 7.73002 15.4999 30.16 14.1199C36.39 5.25992 44.97 0.419922 55.91 0.419922C66.85 0.419922 75.29 5.26992 81.52 14.1199C102.98 14.9499 117.65 37.2399 107.41 57.9999C111.98 67.6899 112.26 77.5199 106.58 86.9299C101.04 96.3399 92.32 100.91 81.66 101.88C69.47 120.15 42.75 120.29 30.16 101.88Z" fill="url(#paint0_linear_3709_602)"/>
<path d="M36.66 90.9399C26.83 92.5999 19.22 89.8299 14.1 81.3899C10.5 75.5799 10.09 65.8899 17.28 58.1299C10.91 50.5199 9.38996 42.2099 14.79 33.4899C19.08 26.5699 25.45 24.2099 36.52 25.0499C39.84 16.0499 46.07 10.7899 55.9 10.6499C65.59 10.6499 71.96 15.9099 75.28 24.9099C85.66 23.2499 93.97 26.2899 98.68 36.2599C102.42 44.1499 100.48 51.4899 94.67 57.9899C101.18 65.7399 102.56 74.0499 97.02 82.7699C92.73 89.5499 85.95 91.9099 75.29 90.9399C72.11 99.9399 65.6 105.34 55.91 105.34C46.35 105.34 39.85 99.9399 36.66 90.9399ZM55.91 95.2299C60.06 95.2299 63.66 92.7399 65.05 88.7199C66.3 84.8399 65.05 80.8299 61.73 78.1999C61.04 77.6499 60.35 77.2299 59.79 76.5399C56.47 72.9399 58.13 67.3999 62.97 66.2999C66.98 65.3299 70.31 67.9599 70.86 72.5299C71.55 78.3399 76.67 82.2199 82.49 80.9699C87.89 79.8599 91.21 74.3299 89.69 69.0599C88.17 63.6599 82.21 60.8899 76.82 62.9699C76.13 63.2499 75.3 63.5199 74.61 63.7999C71.98 64.4899 69.21 63.3799 67.69 61.1699C66.17 59.0899 66.31 56.3199 67.69 54.2499C69.21 52.0399 71.98 51.0699 74.61 51.7599C75.44 52.0399 76.27 52.3099 77.24 52.7299C81.67 54.2499 86.38 52.5899 88.73 48.7199C90.94 44.8399 90.25 40.1399 87.07 37.0899C83.61 33.9099 78.49 33.6299 74.75 36.5399C72.26 38.3399 71.29 40.8299 70.87 43.7399C70.45 47.0599 68.24 49.2799 65.06 49.6899C62.57 49.9699 59.66 48.4399 58.69 45.9499C57.44 43.1799 58.41 40.1399 61.04 38.0599C61.59 37.6399 62.15 37.2299 62.56 36.8099C66.44 33.0699 66.57 27.1199 62.7 23.3799C58.82 19.4999 52.32 19.7799 48.72 23.9299C45.12 27.9399 45.81 34.0399 50.1 37.4999C50.93 38.0499 51.62 38.7499 52.31 39.4399C54.11 41.5199 54.25 44.5599 52.86 46.7799C51.48 49.1299 48.71 50.0999 45.94 49.4099C42.48 48.4399 41.23 45.8099 40.82 42.6299C39.99 36.9499 34.59 33.4899 29.19 34.8799C23.79 36.1299 20.75 41.6599 22.41 46.7899C24.07 52.0499 30.02 54.6799 35.28 52.5999C36.11 52.3199 36.94 51.9099 37.91 51.7699C41.51 51.0799 44.83 53.4299 45.52 57.0299C46.07 60.2099 43.58 63.6699 40.12 63.9499C38.46 64.0899 36.66 63.5299 35 62.9799C29.74 61.1799 24.06 63.8099 22.4 69.0699C20.88 74.3299 23.92 79.7299 29.32 80.9799C34.72 82.2299 39.98 78.7699 40.95 73.3699C41.09 72.6799 41.09 71.8499 41.37 71.1599C42.06 67.9799 44.97 65.7599 48.15 66.0399C51.2 66.3199 53.69 68.6699 53.96 71.7199C54.24 74.4899 52.71 76.4299 50.64 78.0899C47.04 80.7199 45.79 84.7299 47.18 88.6099C48.15 92.5999 51.75 95.2299 55.91 95.2299Z" fill="white"/>
</g>
<defs>
<linearGradient id="paint0_linear_3709_602" x1="55.849" y1="115.625" x2="55.849" y2="0.398198" gradientUnits="userSpaceOnUse">
<stop stop-color="#005DAC"/>
<stop offset="1" stop-color="#72BEDB"/>
</linearGradient>
<clipPath id="clip0_3709_602">
<rect width="111" height="116" fill="white"/>
</clipPath>
</defs>
</svg>
