<svg id="Layer_1" data-name="Layer 1" xmlns="http://www.w3.org/2000/svg" viewBox="0 0 64 64"><defs><style>.cls-1{fill:#50a3ea;}.cls-2{fill:#8793a6;}.cls-3{fill:none;stroke:#8793a6;stroke-miterlimit:10;stroke-width:1.5px;}</style></defs><title>Chunk Sending copy 3</title><path class="cls-1" d="M20.69,25.36c-1.09,0-2.19,0-3.28,0-.44,0-.61-.1-.61-.58,0-2.63,0-5.27,0-7.9,0-.54.17-1,.76-1s.82.45.82,1c0,2,0,4,0,6,0,.64.15.87.83.85,1.56-.05,3.13,0,4.69,0,.54,0,1.05.07,1.07.74s-.49.84-1.06.85Z"/><path class="cls-2" d="M27.54,15.33c.17-1.3.32-2.4.47-3.5,0-.22.08-.45.1-.68a.79.79,0,0,1,.91-.8c.56.06.74.5.67,1-.12,1.06-.28,2.11-.42,3.17-.17,1.23-.35,2.46-.5,3.7-.05.34-.1.57-.55.46-2.28-.51-4.57-1-6.85-1.5a.8.8,0,0,1-.71-1c.12-.55.54-.69,1.06-.57l3.79.82a1.09,1.09,0,0,0,.78,0,6.6,6.6,0,0,0-1.51-1.77,10,10,0,1,0-3.12,16.86c1-.37,1.44-.31,1.62.27.27.89-.48,1-1,1.21a11.62,11.62,0,1,1,4.65-18.47Z"/><path class="cls-3" d="M47.9,40,46,39.86l-4.74-.31c-1.14-.08-2.29-.14-3.43-.21L33.4,39C33,39,32.65,39,32.27,39a.4.4,0,0,1-.46-.38c-.45-1.94-.91-3.88-1.36-5.82L29,26.7c0-.12-.14-.27,0-.36s.24,0,.36.09L57.13,39.78c.11,0,.28.07.28.2s-.17.15-.28.2L29.37,53.53l-.15.07c-.07,0-.14.09-.21,0s0-.14,0-.21l.51-2.23c.75-3.2,1.5-6.39,2.24-9.59.16-.64.16-.62.84-.66,1.29-.06,2.58-.16,3.87-.24l3.5-.2,4-.25,3.61-.2h.32Z"/></svg>