<svg id="Layer_1" data-name="Layer 1" xmlns="http://www.w3.org/2000/svg" viewBox="0 0 64 64"><defs><style>.cls-1{fill:none;stroke:#8793a6;stroke-miterlimit:10;stroke-width:2px;}</style></defs><title>Rgular Sending</title><path class="cls-1" d="M42,31.68l-3.39-.25-8.5-.56c-2.06-.13-4.12-.24-6.17-.38-2.66-.17-5.31-.36-8-.54-.68-.05-1.36-.13-2-.12s-.72-.24-.83-.7c-.8-3.48-1.62-7-2.43-10.44S9,11.44,8.13,7.81c-.05-.22-.24-.49,0-.65s.45.07.65.17l49.83,24c.19.09.5.12.5.36s-.32.26-.5.35L8.73,56l-.27.13c-.12,0-.25.16-.38,0s0-.25,0-.38l.93-4,4-17.2c.27-1.17.28-1.13,1.49-1.19,2.32-.12,4.63-.29,7-.43l6.29-.37,7.19-.44,6.47-.37H42Z"/></svg>