<?xml version="1.0" encoding="UTF-8" standalone="no"?>
<svg width="64px" height="64px" viewBox="0 0 64 64" version="1.1" xmlns="http://www.w3.org/2000/svg" xmlns:xlink="http://www.w3.org/1999/xlink">
    <!-- Generator: sketchtool 39.1 (31720) - http://www.bohemiancoding.com/sketch -->
    <title>27807819-54DE-4F0C-AFFF-C11638C90EC7</title>
    <desc>Created with sketchtool.</desc>
    <defs></defs>
    <g id="Basic" stroke="none" stroke-width="1" fill="none" fill-rule="evenodd">
        <g id="Icons" transform="translate(-469.000000, -1054.000000)">
            <g id="OtherSVGIcons" transform="translate(49.000000, 970.000000)">
                <g id="code" transform="translate(420.000000, 84.000000)">
                    <g id="Group" transform="translate(11.000000, 5.000000)">
                        <polygon id="Shape" fill="#1CA5F0" points="27.9658809 40.748374 33.9181716 33.9054669 34.5668532 33.1597258 33.9181716 32.4139847 27.9658809 25.5710776 26.2512345 27.0625598 32.2035251 33.9054669 32.2035251 32.4139847 26.2512345 39.2568919"></polygon>
                        <polygon id="Shape" fill="#1CA5F0" points="15.1113693 39.2568919 9.1590787 32.4139847 9.1590787 33.9054669 15.1113693 27.0625598 13.3967229 25.5710776 7.44443225 32.4139847 6.79575069 33.1597258 7.44443225 33.9054669 13.3967229 40.748374"></polygon>
                        <polygon id="Shape" fill="#8493A8" points="23.8316507 20.0138688 15.5370319 45.0581681 17.6943502 45.7726673 25.988969 20.7283681"></polygon>
                        <polygon id="Shape" fill="#8493A8" points="29.672006 1.36183107 29.672006 10.4520733 29.672006 11.5883536 30.8082863 11.5883536 39.8985286 11.5883536 39.8985286 9.31579306 30.8082863 9.31579306 31.9445666 10.4520733 31.9445666 1.36183107"></polygon>
                        <path d="M38.7622483,51.812903 C38.7622483,52.1857716 38.458273,52.4944439 38.0997969,52.4944439 L3.05418587,52.4944439 C2.7006362,52.4944439 2.40150647,52.1886364 2.40150647,51.812903 L2.40150647,3.19260587 C2.40150647,2.81223777 2.70573956,2.49811136 3.05418587,2.49811136 L30.8082863,2.49811136 C30.8442313,2.49811136 30.8020713,2.47317069 31.0371076,2.70486298 L38.5643129,10.1327632 C38.7432835,10.3093522 38.7622483,10.346698 38.7622483,10.4520733 L38.7622483,51.812903 L38.7622483,51.812903 Z M41.0348089,51.812903 L41.0348089,10.4520733 C41.0348089,9.66902324 40.7384133,9.08535896 40.1605036,8.51513934 L32.6329206,1.08686665 C32.0103869,0.473189914 31.5917752,0.225550789 30.8082863,0.225550789 L3.05418587,0.225550789 C1.43407692,0.225550789 0.128945903,1.57312322 0.128945903,3.19260587 L0.128945903,51.812903 C0.128945903,53.4326442 1.43416864,54.7670044 3.05418587,54.7670044 L38.0997969,54.7670044 C39.7212397,54.7670044 41.0348089,53.4331383 41.0348089,51.812903 L41.0348089,51.812903 Z" id="Shape" fill="#8493A8"></path>
                    </g>
                </g>
            </g>
        </g>
    </g>
</svg>