<?xml version="1.0" encoding="UTF-8" standalone="no"?>
<svg width="64px" height="64px" viewBox="0 0 64 64" version="1.1" xmlns="http://www.w3.org/2000/svg" xmlns:xlink="http://www.w3.org/1999/xlink">
    <!-- Generator: sketchtool 39.1 (31720) - http://www.bohemiancoding.com/sketch -->
    <title>4B5B9092-EE09-438B-8446-9BD7C6FE69ED</title>
    <desc>Created with sketchtool.</desc>
    <defs></defs>
    <g id="Basic" stroke="none" stroke-width="1" fill="none" fill-rule="evenodd">
        <g id="Icons" transform="translate(-217.000000, -1054.000000)">
            <g id="OtherSVGIcons" transform="translate(49.000000, 970.000000)">
                <g id="envelope" transform="translate(168.000000, 84.000000)">
                    <g id="Group" transform="translate(4.000000, 7.000000)">
                        <polygon id="Shape" fill="#8493A8" points="43.1693867 18.4999963 54.8360533 18.468263 53.8333333 17.4682667 53.8333333 47.8333333 54.8333333 46.8333333 1.16666667 46.8333333 2.16666667 47.8333333 2.16666667 17.4682667 1.16666667 18.4682667 12.8333333 18.4682667 12.8333333 16.4682667 1.16666667 16.4682667 0.166666667 16.4682667 0.166666667 17.4682667 0.166666667 47.8333333 0.166666667 48.8333333 1.16666667 48.8333333 54.8333333 48.8333333 55.8333333 48.8333333 55.8333333 47.8333333 55.8333333 17.4682667 55.8333333 16.465543 54.8306133 16.4682704 43.1639467 16.5000037"></polygon>
                        <path d="M13.8333333,24.4248667 L13.8333333,2.4108 C13.8333333,2.25463196 13.9280562,2.16666667 14.1449,2.16666667 L36.3426,2.16666667 C36.4831988,2.16666667 36.5520592,2.18982584 36.5788604,2.21627673 L42.1242122,7.71871506 C42.1511982,7.74535913 42.1666667,7.79114859 42.1666667,7.93776667 L42.1666667,24.4248667 L44.1666667,24.4248667 L44.1666667,7.93776667 C44.1666667,7.29658223 43.9781421,6.73851608 43.5310884,6.29720435 L37.9856545,0.794684935 C37.5448054,0.359593485 36.9711655,0.166666667 36.3426,0.166666667 L14.1449,0.166666667 C12.8552022,0.166666667 11.8333333,1.11563534 11.8333333,2.4108 L11.8333333,24.4248667 L13.8333333,24.4248667 L13.8333333,24.4248667 Z" id="Shape" fill="#1CA5F0"></path>
                        <polygon id="Shape" fill="#1CA5F0" points="35.1489333 1.16666667 35.1489333 8.16666667 35.1489333 9.16666667 36.1489333 9.16666667 43.1666667 9.16666667 43.1666667 7.16666667 36.1489333 7.16666667 37.1489333 8.16666667 37.1489333 1.16666667"></polygon>
                        <polygon id="Shape" fill="#8493A8" points="0.651351155 18.3252672 27.4405845 34.4336672 27.9550541 34.7430184 28.4699719 34.4344138 55.3474052 18.3260138 54.3192614 16.6105196 27.4418281 32.7189196 28.4712155 32.7196661 1.68198218 16.6112661"></polygon>
                    </g>
                </g>
            </g>
        </g>
    </g>
</svg>