<?xml version="1.0" encoding="UTF-8" standalone="no"?>
<svg width="64px" height="64px" viewBox="0 0 64 64" version="1.1" xmlns="http://www.w3.org/2000/svg" xmlns:xlink="http://www.w3.org/1999/xlink">
    <!-- Generator: Sketch 42 (36781) - http://www.bohemiancoding.com/sketch -->
    <title>email-investigate</title>
    <desc>Created with Sketch.</desc>
    <defs></defs>
    <g id="Basic" stroke="none" stroke-width="1" fill="none" fill-rule="evenodd">
        <g id="Icons" transform="translate(-385.000000, -1138.000000)">
            <g id="OtherSVGIcons" transform="translate(49.000000, 970.000000)">
                <g id="email-ab-icon" transform="translate(336.000000, 168.000000)">
                    <g id="Group" transform="translate(5.000000, 6.000000)">
                        <path d="M25.6062083,25.536 C23.5015417,25.536 21.5318333,24.6594667 20.0609583,23.0871111 L6.806,8.75013333 C6.48825,8.41066667 6.513875,7.87022222 6.86066667,7.54933333 C7.20745833,7.24702222 7.75070833,7.26222222 8.06845833,7.61857778 L21.32,21.9386667 C23.6023333,24.3875556 27.6066667,24.3875556 29.8924167,21.9386667 L43.12175,7.63546667 C43.4395,7.2808 43.9810417,7.26222222 44.3295417,7.58311111 C44.6763333,7.88711111 44.7019583,8.42755556 44.3825,8.76533333 L31.1514583,23.0702222 C29.678875,24.6594667 27.710875,25.536 25.6062083,25.536" id="Fill-12173" fill="#1CA5F0"></path>
                        <path d="M7.43808333,32.2594667 C7.20575,32.2594667 6.975125,32.1564444 6.806,31.9875556 C6.48825,31.6328889 6.513875,31.1110222 6.86066667,30.7884444 L18.5149167,20.2666667 C18.8634167,19.9474667 19.4049583,19.9812444 19.7227083,20.3173333 C20.0404583,20.6551111 20.0165417,21.1955556 19.6680417,21.5164444 L8.01379167,32.0382222 C7.84979167,32.1919111 7.64308333,32.2594667 7.43808333,32.2594667" id="Fill-12174" fill="#8493A8"></path>
                        <path d="M39.26775,28.1875556 C39.06275,28.1875556 38.8560417,28.12 38.6920417,27.9696889 L31.544375,21.5164444 C31.1975833,21.1955556 31.1719583,20.6551111 31.4914167,20.3173333 C31.810875,19.9812444 32.3507083,19.9474667 32.6975,20.2666667 L39.8451667,26.7182222 C40.1919583,27.0391111 40.2175833,27.5626667 39.898125,27.9173333 C39.7307083,28.0862222 39.5000833,28.1875556 39.26775,28.1875556" id="Fill-12175" fill="#8493A8"></path>
                        <path d="M43.8067917,27.5812444 C38.3896667,27.5812444 33.983875,31.9368889 33.983875,37.2906667 C33.983875,42.6444444 38.3896667,47.0017778 43.8067917,47.0017778 C49.2222083,47.0017778 53.6297083,42.6444444 53.6297083,37.2906667 C53.6297083,31.9368889 49.2222083,27.5812444 43.8067917,27.5812444 L43.8067917,27.5812444 Z M43.8067917,48.6906667 C37.4466667,48.6906667 32.2755417,43.5733333 32.2755417,37.2906667 C32.2755417,31.008 37.4466667,25.8906667 43.8067917,25.8906667 C50.1652083,25.8906667 55.3380417,31.008 55.3380417,37.2906667 C55.3380417,43.5733333 50.1652083,48.6906667 43.8067917,48.6906667 L43.8067917,48.6906667 Z" id="Fill-12176" fill="#8493A8"></path>
                        <path d="M50.2130417,38.1351111 C49.7398333,38.1351111 49.358875,37.7635556 49.358875,37.2906667 C49.358875,34.2692444 46.868125,31.8017778 43.8067917,31.8017778 C43.3335833,31.8017778 42.952625,31.4302222 42.952625,30.9573333 C42.952625,30.4844444 43.3335833,30.1145778 43.8067917,30.1145778 C47.8094167,30.1145778 51.0672083,33.3386667 51.0672083,37.2906667 C51.0672083,37.7635556 50.6845417,38.1351111 50.2130417,38.1351111" id="Fill-12177" fill="#1CA5F0"></path>
                        <path d="M32.4583333,37.7145778 L5.31804167,37.7145778 C2.28575,37.7145778 0,35.72 0,33.0684444 L0,5.624 C0,2.8728 2.43608333,0.557333333 5.31804167,0.557333333 L45.8909583,0.557333333 C48.795125,0.557333333 51.25,2.8728 51.25,5.624 L51.25,29.2684444 L49.5416667,29.2684444 L49.5416667,5.624 C49.5416667,3.81857778 47.8350417,2.24791111 45.8909583,2.24791111 L5.31804167,2.24791111 C3.39445833,2.24791111 1.70833333,3.81857778 1.70833333,5.624 L1.70833333,33.0684444 C1.70833333,34.9937778 3.56870833,36.024 5.31804167,36.024 L32.4583333,36.024 L32.4583333,37.7145778" id="Fill-12178" fill="#8493A8"></path>
                        <path d="M24.1626667,51.1243556 C23.8602917,51.1243556 23.5664583,50.9537778 23.4127083,50.6852444 L21.3644167,46.9696889 C21.2567917,46.7653333 21.2311667,46.5474667 21.2960833,46.3279111 C21.3592917,46.1066667 21.5062083,45.9394667 21.7060833,45.8195556 L33.1826667,39.6213333 C33.5977917,39.4017778 34.117125,39.5537778 34.342625,39.9608 C34.568125,40.3813333 34.4160833,40.888 34.0026667,41.1075556 L23.2743333,46.9021333 L24.502625,49.1314667 L35.2326667,43.3368889 C35.6477917,43.1173333 36.1654167,43.2693333 36.3909167,43.6746667 C36.618125,44.0816889 36.464375,44.6035556 36.0509583,44.8231111 L24.5709583,51.0061333 C24.441125,51.0888889 24.3010417,51.1243556 24.1626667,51.1243556" id="Fill-12179" fill="#8493A8"></path>
                    </g>
                </g>
            </g>
        </g>
    </g>
</svg>