<?xml version="1.0" encoding="UTF-8" standalone="no"?>
<svg width="64px" height="64px" viewBox="0 0 64 64" version="1.1" xmlns="http://www.w3.org/2000/svg" xmlns:xlink="http://www.w3.org/1999/xlink">
    <!-- Generator: Sketch 42 (36781) - http://www.bohemiancoding.com/sketch -->
    <title>email-b</title>
    <desc>Created with Sketch.</desc>
    <defs></defs>
    <g id="Basic" stroke="none" stroke-width="1" fill="none" fill-rule="evenodd">
        <g id="Icons" transform="translate(-301.000000, -1138.000000)">
            <g id="OtherSVGIcons" transform="translate(49.000000, 970.000000)">
                <g id="email-ab-b" transform="translate(252.000000, 168.000000)">
                    <g id="Emailb" transform="translate(3.000000, 3.000000)">
                        <polygon id="Shape" fill="#2B3749" fill-rule="nonzero" points="46.9677419 2 46.9677419 29.9032258 48.9677419 29.9032258 48.9677419 0 12.6451613 0 12.6451613 33.516129 14.6451613 33.516129 14.6451613 2"></polygon>
                        <polygon id="Shape" fill="#2B3749" fill-rule="nonzero" points="56 56 2 56 2 21.8709677 7.32258065 21.8709677 7.32258065 19.8709677 0 19.8709677 0 58 58 58 58 19.8709677 50.6774194 19.8709677 50.6774194 21.8709677 56 21.8709677"></polygon>
                        <polygon id="Shape" fill="#2B3749" fill-rule="nonzero" points="56.3878268 57.7907237 57.6121732 56.2092763 29 34.0579164 0.387826807 56.2092763 1.61217319 57.7907237 29 36.5872449"></polygon>
                        <polygon id="Shape" fill="#2B3749" fill-rule="nonzero" points="0.292893219 21.5780745 18.3574093 39.6425907 19.7716229 38.2283771 1.70710678 20.163861"></polygon>
                        <polygon id="Shape" fill="#2B3749" fill-rule="nonzero" points="56.2928932 20.163861 38.2283771 38.2283771 39.6425907 39.6425907 57.7071068 21.5780745"></polygon>
                        <polygon id="Shape" fill="#1CA5F0" fill-rule="nonzero" points="28.0967742 52.5806452 29.9032258 52.5806452 29.9032258 50.5806452 28.0967742 50.5806452"></polygon>
                        <polygon id="Shape" fill="#1CA5F0" fill-rule="nonzero" points="31.7096774 52.5806452 33.516129 52.5806452 33.516129 50.5806452 31.7096774 50.5806452"></polygon>
                        <polygon id="Shape" fill="#1CA5F0" fill-rule="nonzero" points="24.483871 52.5806452 26.2903226 52.5806452 26.2903226 50.5806452 24.483871 50.5806452"></polygon>
                        <polygon id="Shape" fill="#2B3749" fill-rule="nonzero" points="13.6451613 5.61290323 13.6451613 3.61290323 9.03225806 3.61290323 9.03225806 29.9032258 11.0322581 29.9032258 11.0322581 5.61290323"></polygon>
                        <path d="M27.106,17.088 L30.97,17.088 C31.3433352,17.088 31.7119982,17.1323329 32.076,17.221 C32.4400018,17.3096671 32.7643319,17.4543323 33.049,17.655 C33.3336681,17.8556677 33.5646658,18.1146651 33.742,18.432 C33.9193342,18.7493349 34.008,19.1319978 34.008,19.58 C34.008,20.1400028 33.8493349,20.6019982 33.532,20.966 C33.2146651,21.3300018 32.7993359,21.5913325 32.286,21.75 L32.286,21.778 C32.5940015,21.8153335 32.8809987,21.901666 33.147,22.037 C33.4130013,22.172334 33.6393324,22.3449989 33.826,22.555 C34.0126676,22.765001 34.1596661,23.0076653 34.267,23.283 C34.3743339,23.5583347 34.428,23.8546651 34.428,24.172 C34.428,24.713336 34.3206677,25.1636649 34.106,25.523 C33.8913323,25.8823351 33.6090017,26.1716656 33.259,26.391 C32.9089982,26.6103344 32.5076689,26.7666662 32.055,26.86 C31.6023311,26.9533338 31.142669,27 30.676,27 L27.106,27 L27.106,17.088 Z M28.87,21.12 L30.48,21.12 C31.0680029,21.12 31.5089985,21.0056678 31.803,20.777 C32.0970015,20.5483322 32.244,20.2473352 32.244,19.874 C32.244,19.4446645 32.0923348,19.125001 31.789,18.915 C31.4856651,18.7049989 30.9980034,18.6 30.326,18.6 L28.87,18.6 L28.87,21.12 Z M28.87,25.488 L30.494,25.488 C30.7180011,25.488 30.958332,25.4740001 31.215,25.446 C31.4716679,25.4179999 31.7073323,25.3526672 31.922,25.25 C32.1366677,25.1473328 32.3139993,25.0003343 32.454,24.809 C32.5940007,24.6176657 32.664,24.3586683 32.664,24.032 C32.664,23.5093307 32.4936684,23.1453344 32.153,22.94 C31.8123316,22.7346656 31.2826703,22.632 30.564,22.632 L28.87,22.632 L28.87,25.488 Z" id="B" fill="#1CA5F0"></path>
                        <polygon id="Shape" fill="#2B3749" fill-rule="nonzero" points="16.3548387 5.61290323 18.1612903 5.61290323 18.1612903 3.61290323 16.3548387 3.61290323"></polygon>
                        <polygon id="Shape" fill="#2B3749" fill-rule="nonzero" points="19.9677419 5.61290323 21.7741935 5.61290323 21.7741935 3.61290323 19.9677419 3.61290323"></polygon>
                        <polygon id="Shape" fill="#2B3749" fill-rule="nonzero" points="23.5806452 5.61290323 25.3870968 5.61290323 25.3870968 3.61290323 23.5806452 3.61290323"></polygon>
                        <polygon id="Shape" fill="#1CA5F0" fill-rule="nonzero" points="16.3548387 9.22580645 45.2580645 9.22580645 45.2580645 7.22580645 16.3548387 7.22580645"></polygon>
                    </g>
                </g>
            </g>
        </g>
    </g>
</svg>