<?xml version="1.0" encoding="UTF-8" standalone="no"?>
<svg width="64px" height="64px" viewBox="0 0 64 64" version="1.1" xmlns="http://www.w3.org/2000/svg" xmlns:xlink="http://www.w3.org/1999/xlink">
    <!-- Generator: Sketch 42 (36781) - http://www.bohemiancoding.com/sketch -->
    <title>email-a</title>
    <desc>Created with Sketch.</desc>
    <defs></defs>
    <g id="Basic" stroke="none" stroke-width="1" fill="none" fill-rule="evenodd">
        <g id="Icons" transform="translate(-217.000000, -1138.000000)">
            <g id="OtherSVGIcons" transform="translate(49.000000, 970.000000)">
                <g id="email-ab-a" transform="translate(168.000000, 168.000000)">
                    <g id="EmailA" transform="translate(3.000000, 3.000000)">
                        <polygon id="Shape" fill="#2B3749" fill-rule="nonzero" points="46.9677419 2 46.9677419 29.9032258 48.9677419 29.9032258 48.9677419 0 12.6451613 0 12.6451613 33.516129 14.6451613 33.516129 14.6451613 2"></polygon>
                        <polygon id="Shape" fill="#2B3749" fill-rule="nonzero" points="56 56 2 56 2 21.8709677 7.32258065 21.8709677 7.32258065 19.8709677 0 19.8709677 0 58 58 58 58 19.8709677 50.6774194 19.8709677 50.6774194 21.8709677 56 21.8709677"></polygon>
                        <polygon id="Shape" fill="#2B3749" fill-rule="nonzero" points="56.3878268 57.7907237 57.6121732 56.2092763 29 34.0579164 0.387826807 56.2092763 1.61217319 57.7907237 29 36.5872449"></polygon>
                        <polygon id="Shape" fill="#2B3749" fill-rule="nonzero" points="0.292893219 21.5780745 18.3574093 39.6425907 19.7716229 38.2283771 1.70710678 20.163861"></polygon>
                        <polygon id="Shape" fill="#2B3749" fill-rule="nonzero" points="56.2928932 20.163861 38.2283771 38.2283771 39.6425907 39.6425907 57.7071068 21.5780745"></polygon>
                        <polygon id="Shape" fill="#1CA5F0" fill-rule="nonzero" points="28.0967742 52.5806452 29.9032258 52.5806452 29.9032258 50.5806452 28.0967742 50.5806452"></polygon>
                        <polygon id="Shape" fill="#1CA5F0" fill-rule="nonzero" points="31.7096774 52.5806452 33.516129 52.5806452 33.516129 50.5806452 31.7096774 50.5806452"></polygon>
                        <polygon id="Shape" fill="#1CA5F0" fill-rule="nonzero" points="24.483871 52.5806452 26.2903226 52.5806452 26.2903226 50.5806452 24.483871 50.5806452"></polygon>
                        <polygon id="Shape" fill="#2B3749" fill-rule="nonzero" points="13.6451613 5.61290323 13.6451613 3.61290323 9.03225806 3.61290323 9.03225806 29.9032258 11.0322581 29.9032258 11.0322581 5.61290323"></polygon>
                        <path d="M24.483871,28.0967742 L26.7762581,28.0967742 L27.8167742,25.4629677 L32.808,25.4629677 L33.8810323,28.0967742 L36.2221935,28.0967742 L31.2634839,16.5860645 L29.4913548,16.5860645 L24.483871,28.0967742 Z M28.515871,23.7070968 L30.3205161,19.0247742 L32.0926452,23.7070968 L28.515871,23.7070968 Z" id="A" fill="#1CA5F0"></path>
                        <polygon id="Shape" fill="#2B3749" fill-rule="nonzero" points="16.3548387 5.61290323 18.1612903 5.61290323 18.1612903 3.61290323 16.3548387 3.61290323"></polygon>
                        <polygon id="Shape" fill="#2B3749" fill-rule="nonzero" points="19.9677419 5.61290323 21.7741935 5.61290323 21.7741935 3.61290323 19.9677419 3.61290323"></polygon>
                        <polygon id="Shape" fill="#2B3749" fill-rule="nonzero" points="23.5806452 5.61290323 25.3870968 5.61290323 25.3870968 3.61290323 23.5806452 3.61290323"></polygon>
                        <polygon id="Shape" fill="#1CA5F0" fill-rule="nonzero" points="16.3548387 9.22580645 45.2580645 9.22580645 45.2580645 7.22580645 16.3548387 7.22580645"></polygon>
                    </g>
                </g>
            </g>
        </g>
    </g>
</svg>