<?xml version="1.0" encoding="UTF-8" standalone="no"?>
<svg width="64px" height="64px" viewBox="0 0 64 64" version="1.1" xmlns="http://www.w3.org/2000/svg" xmlns:xlink="http://www.w3.org/1999/xlink">
    <!-- Generator: sketchtool 39.1 (31720) - http://www.bohemiancoding.com/sketch -->
    <title>5B8385F5-45B8-4D24-BCC3-B7F46A499317</title>
    <desc>Created with sketchtool.</desc>
    <defs></defs>
    <g id="Basic" stroke="none" stroke-width="1" fill="none" fill-rule="evenodd">
        <g id="Icons" transform="translate(-973.000000, -1054.000000)">
            <g id="OtherSVGIcons" transform="translate(49.000000, 970.000000)">
                <g id="goal" transform="translate(924.000000, 84.000000)">
                    <g id="Group-6" transform="translate(4.000000, 4.000000)">
                        <path d="M54.1935484,28.5602759 L37.9354839,28.5602759 C37.4369032,28.5602759 37.0322581,28.1655724 37.0322581,27.6591264 C37.0322581,27.1544828 37.4369032,26.7597793 37.9354839,26.7597793 L54.1935484,26.7597793 C54.692129,26.7597793 55.0967742,27.1544828 55.0967742,27.6591264 C55.0967742,28.1655724 54.692129,28.5602759 54.1935484,28.5602759" id="Fill-5556" fill="#8493A8"></path>
                        <path d="M18.0645161,28.5602759 L1.80645161,28.5602759 C1.30787097,28.5602759 0.903225806,28.1655724 0.903225806,27.6591264 C0.903225806,27.1544828 1.30787097,26.7597793 1.80645161,26.7597793 L18.0645161,26.7597793 C18.5630968,26.7597793 18.9677419,27.1544828 18.9677419,27.6591264 C18.9677419,28.1655724 18.5630968,28.5602759 18.0645161,28.5602759" id="Fill-5557" fill="#8493A8"></path>
                        <path d="M28,18.6494345 C27.5014194,18.6494345 27.0967742,18.2511264 27.0967742,17.7464828 L27.0967742,1.5257931 C27.0967742,1.02114943 27.5014194,0.624643678 28,0.624643678 C28.4985806,0.624643678 28.9032258,1.02114943 28.9032258,1.5257931 L28.9032258,17.7464828 C28.9032258,18.2511264 28.4985806,18.6494345 28,18.6494345" id="Fill-5558" fill="#8493A8"></path>
                        <path d="M28,54.6936092 C27.5014194,54.6936092 27.0967742,54.2989057 27.0967742,53.7942621 L27.0967742,37.5735724 C27.0967742,37.0671264 27.5014194,36.6706207 28,36.6706207 C28.4985806,36.6706207 28.9032258,37.0671264 28.9032258,37.5735724 L28.9032258,53.7942621 C28.9032258,54.2989057 28.4985806,54.6936092 28,54.6936092" id="Fill-5559" fill="#8493A8"></path>
                        <path d="M27.8387097,25.3614302 C26.6558525,25.3614302 25.6958525,26.3325813 25.6958525,27.5036753 C25.6958525,28.6747693 26.6558525,29.6459204 27.8387097,29.6459204 C29.0215668,29.6459204 29.9815668,28.6747693 29.9815668,27.5036753 C29.9815668,26.3325813 29.0215668,25.3614302 27.8387097,25.3614302 L27.8387097,25.3614302 Z M27.8387097,32.5051034 C25.0815668,32.5051034 22.8387097,30.2486053 22.8387097,27.5036753 C22.8387097,24.7616016 25.0815668,22.5051034 27.8387097,22.5051034 C30.5958525,22.5051034 32.8387097,24.7616016 32.8387097,27.5036753 C32.8387097,30.2486053 30.5958525,32.5051034 27.8387097,32.5051034 L27.8387097,32.5051034 Z" id="Fill-5560" fill="#1CA5F0" transform="translate(27.838710, 27.505103) rotate(-359.000000) translate(-27.838710, -27.505103) "></path>
                        <path d="M28,13.7093333 C20.2864516,13.7093333 14.0108387,19.9651126 14.0108387,27.6591264 C14.0108387,35.3549425 20.2864516,41.6089195 28,41.6089195 C35.7135484,41.6089195 41.9891613,35.3549425 41.9891613,27.6591264 C41.9891613,19.9651126 35.7135484,13.7093333 28,13.7093333 L28,13.7093333 Z M28,43.4130207 C19.2892903,43.4130207 12.2043871,36.3480092 12.2043871,27.6591264 C12.2043871,18.972046 19.2892903,11.9070345 28,11.9070345 C36.7107097,11.9070345 43.7956129,18.972046 43.7956129,27.6591264 C43.7956129,36.3480092 36.7107097,43.4130207 28,43.4130207 L28,43.4130207 Z" id="Fill-5561" fill="#8493A8"></path>
                        <path d="M28,6.89664368 C16.5290323,6.89664368 7.19690323,16.216331 7.19690323,27.6591264 C7.19690323,39.1037241 16.5290323,48.4035862 28,48.4035862 C39.4709677,48.4035862 48.8030968,39.1037241 48.8030968,27.6591264 C48.8030968,16.216331 39.4709677,6.89664368 28,6.89664368 L28,6.89664368 Z M28,50.2058851 C15.5336774,50.2058851 5.39045161,40.0949885 5.39045161,27.6591264 C5.39045161,15.2232644 15.5336774,5.09614713 28,5.09614713 C40.4663226,5.09614713 50.6095484,15.2232644 50.6095484,27.6591264 C50.6095484,40.0949885 40.4663226,50.2058851 28,50.2058851 L28,50.2058851 Z" id="Fill-5562" fill="#8493A8"></path>
                    </g>
                </g>
            </g>
        </g>
    </g>
</svg>