<?xml version="1.0" encoding="UTF-8" standalone="no"?>
<svg width="64px" height="64px" viewBox="0 0 64 64" version="1.1" xmlns="http://www.w3.org/2000/svg" xmlns:xlink="http://www.w3.org/1999/xlink">
    <!-- Generator: Sketch 42 (36781) - http://www.bohemiancoding.com/sketch -->
    <title>regular-email</title>
    <desc>Created with Sketch.</desc>
    <defs></defs>
    <g id="Basic" stroke="none" stroke-width="1" fill="none" fill-rule="evenodd">
        <g id="Icons" transform="translate(-133.000000, -1138.000000)" fill-rule="nonzero">
            <g id="OtherSVGIcons" transform="translate(49.000000, 970.000000)">
                <g id="regular-email" transform="translate(84.000000, 168.000000)">
                    <g id="Group" transform="translate(4.000000, 11.000000)">
                        <path d="M48.2776308,6.15351199 L29.7812975,22.784812 C28.6469648,23.8048043 26.8352685,23.8048043 25.7009453,22.7848205 L7.20483909,6.15351493 L6.26876091,7.19455174 L24.7648609,23.8258517 C26.4314648,25.3244624 29.0507685,25.3244624 30.7173786,23.8258462 L49.2137025,7.19455468 L48.2776308,6.15351199 Z" id="Shape" fill="#8493A8"></path>
                        <polygon id="Shape" fill="#1CA5F0" points="35.9080202 25.5645567 48.2984869 35.8711234 49.1937798 34.7948099 36.8033131 24.4882433"></polygon>
                        <polygon id="Shape" fill="#1CA5F0" points="18.6803252 24.4882391 6.28962521 34.7948058 7.18490812 35.8711275 19.5756081 25.5645609"></polygon>
                        <path d="M0.466666667,6.51186667 C0.466666667,3.15352098 3.19393638,0.466666667 6.63203333,0.466666667 L49.3509333,0.466666667 C52.7913463,0.466666667 55.5333654,3.15631011 55.5331,6.51186667 L55.5331,35.4951333 C55.5331,38.8495216 52.7920703,41.5333333 49.3507,41.5333333 L6.63203333,41.5333333 C3.19297734,41.5333333 0.466666667,38.8522817 0.466666667,35.4953667 L0.466666667,6.51186667 Z M1.86666667,6.51186667 L1.86666667,35.4953667 C1.86666667,38.0737886 3.9609787,40.1333333 6.63203333,40.1333333 L49.3507,40.1333333 C52.0254049,40.1333333 54.1331,38.0696355 54.1331,35.4951333 L54.1331,6.5118113 C54.1333038,3.93557461 52.0241078,1.86666667 49.3509333,1.86666667 L6.63203333,1.86666667 C3.96249499,1.86666667 1.86666667,3.93143692 1.86666667,6.51186667 Z" id="Shape" fill="#8493A8"></path>
                    </g>
                </g>
            </g>
        </g>
    </g>
</svg>