<?xml version="1.0" encoding="utf-8"?>
<!-- Generator: Adobe Illustrator 16.0.0, SVG Export Plug-In . SVG Version: 6.00 Build 0)  -->
<!DOCTYPE svg PUBLIC "-//W3C//DTD SVG 1.1//EN" "http://www.w3.org/Graphics/SVG/1.1/DTD/svg11.dtd">
<svg version="1.1" id="Layer_1" xmlns="http://www.w3.org/2000/svg" xmlns:xlink="http://www.w3.org/1999/xlink" x="0px" y="0px"
	 width="64px" height="64px" viewBox="0 0 64 64" enable-background="new 0 0 64 64" xml:space="preserve">
<g>
	<path fill="#8493A8" d="M40.672,6.362v10.226h10.227v-2.272h-9.09l1.137,1.136v-9.09H40.672z"/>
	<path fill="#8493A8" d="M49.762,56.813c0.001,0.369-0.293,0.672-0.662,0.682H14.054c-0.353,0-0.652-0.305-0.652-0.682V8.193
		c0-0.38,0.304-0.695,0.652-0.695h27.754c0.035,0-0.006-0.025,0.229,0.207l7.526,7.428c0.18,0.176,0.197,0.214,0.197,0.32V56.813z
		 M52.035,56.813V15.453c0-0.784-0.297-1.368-0.874-1.938l-7.528-7.428c-0.623-0.614-1.041-0.861-1.824-0.861H14.054
		c-1.62,0-2.925,1.347-2.925,2.967v48.62c0,1.621,1.305,2.955,2.925,2.955H49.1C50.721,59.768,52.035,58.434,52.035,56.813z"/>
</g>
<path fill="#1CA5F0" d="M22.735,30.617h17.692v-5.954H22.735V30.617z"/>
<path fill="#1CA5F0" d="M28.602,27.64v21.88h5.958V27.64H28.602z"/>
</svg>
