<svg width="96" height="36" viewBox="0 0 96 36" fill="none" xmlns="http://www.w3.org/2000/svg">
<rect width="36" height="36" rx="18" fill="#00C8C9"/>
<path fill-rule="evenodd" clip-rule="evenodd" d="M13.6814 23.8486C14.0373 23.8486 14.3786 23.9883 14.6303 24.2369C14.8819 24.4855 15.0233 24.8227 15.0233 25.1743C15.0233 25.5259 14.8819 25.8631 14.6303 26.1117C14.3786 26.3603 14.0373 26.5 13.6814 26.5C13.3255 26.5 12.9842 26.3603 12.7325 26.1117C12.4808 25.8631 12.3395 25.5259 12.3395 25.1743C12.3395 24.8227 12.4808 24.4855 12.7325 24.2369C12.9842 23.9883 13.3255 23.8486 13.6814 23.8486ZM24.5747 23.8486C24.9306 23.8486 25.272 23.9883 25.5236 24.2369C25.7753 24.4855 25.9167 24.8227 25.9167 25.1743C25.9167 25.5259 25.7753 25.8631 25.5236 26.1117C25.272 26.3603 24.9306 26.5 24.5747 26.5C24.2188 26.5 23.8775 26.3603 23.6259 26.1117C23.3742 25.8631 23.2328 25.5259 23.2328 25.1743C23.2328 24.8227 23.3742 24.4855 23.6259 24.2369C23.8775 23.9883 24.2188 23.8486 24.5747 23.8486ZM27.3685 9.5C27.4611 9.5 27.5526 9.52012 27.6364 9.55894C27.7203 9.59776 27.7945 9.65433 27.8538 9.72463C27.913 9.79494 27.9559 9.87726 27.9794 9.96576C28.0029 10.0543 28.0063 10.1468 27.9896 10.2368L26.012 20.8423C25.9853 20.9857 25.9085 21.1154 25.7951 21.2088C25.6816 21.3021 25.5386 21.3532 25.391 21.3532H24.307C24.2144 21.3532 24.1229 21.3331 24.039 21.2943C23.9552 21.2555 23.881 21.1989 23.8217 21.1286C23.7624 21.0583 23.7196 20.976 23.6961 20.8874C23.6726 20.7989 23.6691 20.7064 23.6859 20.6164L25.6634 10.0109C25.6902 9.86747 25.7669 9.7378 25.8804 9.64446C25.9939 9.55111 26.1369 9.5 26.2845 9.5H27.3685ZM22.7838 13.2431C22.8769 13.2431 22.9688 13.2633 23.053 13.3025C23.1372 13.3416 23.2117 13.3987 23.2709 13.4696C23.3302 13.5405 23.3729 13.6234 23.396 13.7125C23.419 13.8016 23.4218 13.8946 23.4043 13.9849L22.0683 20.8473C22.0406 20.9897 21.9635 21.118 21.8503 21.2104C21.7372 21.3027 21.595 21.3532 21.4482 21.3532H20.3661C20.2731 21.3532 20.1812 21.3329 20.097 21.2937C20.0128 21.2546 19.9385 21.1975 19.8792 21.1266C19.8199 21.0558 19.7773 20.9728 19.7543 20.8838C19.7312 20.7947 19.7284 20.7017 19.746 20.6114L21.0819 13.7491C21.1097 13.6067 21.1867 13.4783 21.2999 13.386C21.4131 13.2936 21.5553 13.2431 21.7021 13.2431H22.7838ZM18.225 16.6743C18.3167 16.6743 18.4074 16.694 18.4906 16.7321C18.5738 16.7702 18.6477 16.8258 18.7069 16.8949C18.7662 16.9641 18.8096 17.0451 18.8339 17.1325C18.8583 17.2199 18.8631 17.3114 18.848 17.4008L18.2692 20.832C18.2446 20.9777 18.1685 21.1101 18.0543 21.2055C17.9402 21.301 17.7955 21.3533 17.6459 21.3532H16.3716C16.3028 21.3532 16.2348 21.3384 16.1723 21.3099C16.1099 21.2813 16.0545 21.2396 16.01 21.1878C15.9656 21.1359 15.9331 21.0751 15.9148 21.0095C15.8965 20.944 15.8929 20.8753 15.9043 20.8083L16.5137 17.1955C16.5383 17.0498 16.6144 16.9175 16.7285 16.822C16.8427 16.7266 16.9874 16.6742 17.137 16.6743H18.225ZM12.1289 11.9954C12.2767 11.9954 12.4198 12.0465 12.5333 12.14C12.6469 12.2335 12.7236 12.3633 12.7502 12.507L14.2892 20.8011C14.3017 20.8685 14.299 20.9379 14.2814 21.0042C14.2638 21.0705 14.2316 21.1322 14.1872 21.1849C14.1427 21.2375 14.0871 21.2799 14.0243 21.309C13.9614 21.3381 13.8929 21.3532 13.8235 21.3532H12.8743C12.7248 21.3532 12.5802 21.3009 12.4661 21.2054C12.3521 21.11 12.276 20.9776 12.2514 20.832L11.0935 13.9687H8.77465C8.62421 13.9687 8.4787 13.9157 8.36432 13.8191C8.24994 13.7226 8.1742 13.5889 8.15073 13.4421L8.0058 12.5363C7.99512 12.4695 7.99922 12.4013 8.01781 12.3362C8.0364 12.2711 8.06904 12.2108 8.11348 12.1594C8.15792 12.108 8.21311 12.0667 8.27525 12.0384C8.33738 12.0101 8.40499 11.9954 8.47342 11.9954H12.1289Z" fill="white"/>
<path d="M48 14.332H45.12V23.5H43.04V14.332H40.16V12.3H48V14.332ZM52.7163 15.372C53.7829 15.372 54.6363 15.7027 55.2763 16.364C55.9163 17.0147 56.2363 17.9907 56.2363 19.292V23.5H54.1563V19.292C54.1563 18.6413 54.0389 18.1667 53.8043 17.868C53.5803 17.5587 53.2176 17.404 52.7163 17.404C52.2149 17.404 51.8469 17.5587 51.6123 17.868C51.3883 18.1667 51.2763 18.6413 51.2763 19.292V23.5H49.1963V12.3H51.2763V15.772C51.6709 15.5053 52.1509 15.372 52.7163 15.372ZM57.9125 19.292C57.9125 18.0227 58.2272 17.068 58.8565 16.428C59.4858 15.788 60.3125 15.468 61.3365 15.468H61.4325V17.5H61.3525C60.8938 17.5 60.5525 17.644 60.3285 17.932C60.1045 18.22 59.9925 18.6733 59.9925 19.292V23.5H57.9125V19.292ZM64.2049 14.652C63.8529 14.652 63.5542 14.5347 63.3089 14.3C63.0742 14.0547 62.9569 13.756 62.9569 13.404C62.9569 13.0627 63.0742 12.7747 63.3089 12.54C63.5542 12.2947 63.8529 12.172 64.2049 12.172C64.5462 12.172 64.8342 12.2947 65.0689 12.54C65.3142 12.7747 65.4369 13.0627 65.4369 13.404C65.4369 13.756 65.3142 14.0547 65.0689 14.3C64.8342 14.5347 64.5462 14.652 64.2049 14.652ZM63.1649 15.5H65.2449V23.5H63.1649V15.5ZM66.4744 15.5H68.6504L70.4744 20.764L72.3144 15.5H74.4904L71.5144 23.5H69.4344L66.4744 15.5ZM74.9656 19.516C74.9656 18.78 75.1416 18.0973 75.4936 17.468C75.8563 16.828 76.347 16.3213 76.9656 15.948C77.595 15.564 78.283 15.372 79.0296 15.372C79.7123 15.372 80.3683 15.532 80.9976 15.852C81.627 16.1613 82.1443 16.6147 82.5496 17.212C82.9656 17.8093 83.1843 18.5133 83.2056 19.324C83.2163 19.6653 83.195 19.996 83.1416 20.316H77.2056C77.3016 20.7107 77.5096 21.0253 77.8296 21.26C78.1603 21.484 78.5603 21.596 79.0296 21.596C79.3603 21.596 79.627 21.5533 79.8296 21.468C80.043 21.3827 80.235 21.2707 80.4056 21.132L82.8856 21.148C82.555 21.884 82.0483 22.4813 81.3656 22.94C80.683 23.3987 79.9256 23.628 79.0936 23.628C78.3363 23.628 77.643 23.4467 77.0136 23.084C76.3843 22.7107 75.883 22.2093 75.5096 21.58C75.147 20.9507 74.9656 20.2627 74.9656 19.516ZM80.9816 18.652C80.8216 18.2787 80.5656 17.98 80.2136 17.756C79.8723 17.5213 79.499 17.404 79.0936 17.404C78.6456 17.404 78.2616 17.516 77.9416 17.74C77.6216 17.964 77.3763 18.268 77.2056 18.652H80.9816Z" fill="#141422"/>
<path d="M86.56 12.3V19.708C86.56 20.2947 86.7253 20.7587 87.056 21.1C87.3973 21.4307 87.8613 21.596 88.448 21.596C89.0453 21.596 89.5093 21.4307 89.84 21.1C90.1707 20.7587 90.336 20.2947 90.336 19.708V12.3H92.416V19.708C92.416 20.5613 92.2293 21.2867 91.856 21.884C91.4933 22.4707 91.0133 22.908 90.416 23.196C89.8187 23.484 89.1627 23.628 88.448 23.628C87.7333 23.628 87.0773 23.484 86.48 23.196C85.8827 22.908 85.3973 22.4707 85.024 21.884C84.6613 21.2867 84.48 20.5613 84.48 19.708V12.3H86.56ZM92.7306 23.5V12.3H94.8106V23.5H92.7306Z" fill="#00C8C9"/>
</svg>
