<svg width="36" height="36" viewBox="0 0 36 36" fill="none" xmlns="http://www.w3.org/2000/svg">
<rect width="36" height="36" rx="18" fill="#00C8C9"/>
<path fill-rule="evenodd" clip-rule="evenodd" d="M13.6814 23.8486C14.0373 23.8486 14.3786 23.9883 14.6303 24.2369C14.8819 24.4855 15.0233 24.8227 15.0233 25.1743C15.0233 25.5259 14.8819 25.8631 14.6303 26.1117C14.3786 26.3603 14.0373 26.5 13.6814 26.5C13.3255 26.5 12.9842 26.3603 12.7325 26.1117C12.4808 25.8631 12.3395 25.5259 12.3395 25.1743C12.3395 24.8227 12.4808 24.4855 12.7325 24.2369C12.9842 23.9883 13.3255 23.8486 13.6814 23.8486ZM24.5747 23.8486C24.9306 23.8486 25.272 23.9883 25.5236 24.2369C25.7753 24.4855 25.9167 24.8227 25.9167 25.1743C25.9167 25.5259 25.7753 25.8631 25.5236 26.1117C25.272 26.3603 24.9306 26.5 24.5747 26.5C24.2188 26.5 23.8775 26.3603 23.6259 26.1117C23.3742 25.8631 23.2328 25.5259 23.2328 25.1743C23.2328 24.8227 23.3742 24.4855 23.6259 24.2369C23.8775 23.9883 24.2188 23.8486 24.5747 23.8486ZM27.3685 9.5C27.4611 9.5 27.5526 9.52012 27.6364 9.55894C27.7203 9.59776 27.7945 9.65433 27.8538 9.72463C27.913 9.79494 27.9559 9.87726 27.9794 9.96576C28.0029 10.0543 28.0063 10.1468 27.9896 10.2368L26.012 20.8423C25.9853 20.9857 25.9085 21.1154 25.7951 21.2088C25.6816 21.3021 25.5386 21.3532 25.391 21.3532H24.307C24.2144 21.3532 24.1229 21.3331 24.039 21.2943C23.9552 21.2555 23.881 21.1989 23.8217 21.1286C23.7624 21.0583 23.7196 20.976 23.6961 20.8874C23.6726 20.7989 23.6691 20.7064 23.6859 20.6164L25.6634 10.0109C25.6902 9.86747 25.7669 9.7378 25.8804 9.64446C25.9939 9.55111 26.1369 9.5 26.2845 9.5H27.3685ZM22.7838 13.2431C22.8769 13.2431 22.9688 13.2633 23.053 13.3025C23.1372 13.3416 23.2117 13.3987 23.2709 13.4696C23.3302 13.5405 23.3729 13.6234 23.396 13.7125C23.419 13.8016 23.4218 13.8946 23.4043 13.9849L22.0683 20.8473C22.0406 20.9897 21.9635 21.118 21.8503 21.2104C21.7372 21.3027 21.595 21.3532 21.4482 21.3532H20.3661C20.2731 21.3532 20.1812 21.3329 20.097 21.2937C20.0128 21.2546 19.9385 21.1975 19.8792 21.1266C19.8199 21.0558 19.7773 20.9728 19.7543 20.8838C19.7312 20.7947 19.7284 20.7017 19.746 20.6115L21.0819 13.7491C21.1097 13.6067 21.1867 13.4783 21.2999 13.386C21.4131 13.2936 21.5553 13.2431 21.7021 13.2431H22.7838ZM18.225 16.6743C18.3167 16.6743 18.4074 16.694 18.4906 16.7321C18.5738 16.7702 18.6477 16.8258 18.7069 16.8949C18.7662 16.9641 18.8096 17.0451 18.8339 17.1325C18.8583 17.2199 18.8631 17.3114 18.848 17.4008L18.2692 20.832C18.2446 20.9777 18.1685 21.1101 18.0543 21.2055C17.9402 21.301 17.7955 21.3533 17.6459 21.3532H16.3716C16.3028 21.3532 16.2348 21.3384 16.1723 21.3099C16.1099 21.2813 16.0545 21.2396 16.01 21.1878C15.9656 21.1359 15.9331 21.0751 15.9148 21.0095C15.8965 20.944 15.8929 20.8753 15.9043 20.8083L16.5137 17.1955C16.5383 17.0498 16.6144 16.9175 16.7285 16.822C16.8427 16.7266 16.9874 16.6742 17.137 16.6743H18.225ZM12.1289 11.9954C12.2767 11.9954 12.4198 12.0465 12.5333 12.14C12.6469 12.2335 12.7236 12.3633 12.7502 12.507L14.2892 20.8011C14.3017 20.8685 14.299 20.9379 14.2814 21.0042C14.2638 21.0705 14.2316 21.1322 14.1872 21.1849C14.1427 21.2375 14.0871 21.2799 14.0243 21.309C13.9614 21.3381 13.8929 21.3532 13.8235 21.3532H12.8743C12.7248 21.3532 12.5802 21.3009 12.4661 21.2054C12.3521 21.11 12.276 20.9776 12.2514 20.832L11.0935 13.9687H8.77465C8.62421 13.9687 8.4787 13.9157 8.36432 13.8191C8.24994 13.7226 8.1742 13.5889 8.15073 13.4421L8.0058 12.5363C7.99512 12.4695 7.99922 12.4013 8.01781 12.3362C8.0364 12.2711 8.06904 12.2108 8.11348 12.1594C8.15792 12.108 8.21311 12.0667 8.27525 12.0384C8.33738 12.0101 8.40499 11.9954 8.47342 11.9954H12.1289Z" fill="white"/>
</svg>
