<svg width="40" height="40" viewBox="0 0 40 40" fill="none" xmlns="http://www.w3.org/2000/svg">
<path opacity="0.5" fill-rule="evenodd" clip-rule="evenodd" d="M6.66663 20C6.66663 12.65 12.65 6.66666 20 6.66666C27.35 6.66666 33.3333 12.65 33.3333 20C33.3333 23.0333 32.3 25.8167 30.6 28.05C28.2166 25.15 22.4333 24.1667 20 24.1667C17.5666 24.1667 11.7833 25.15 9.39996 28.05C7.69996 25.8167 6.66663 23.0333 6.66663 20ZM14.1666 15.8333C14.1666 19.0667 16.7666 21.6667 20 21.6667C23.2333 21.6667 25.8333 19.0667 25.8333 15.8333C25.8333 12.6 23.2333 10 20 10C16.7666 10 14.1666 12.6 14.1666 15.8333Z" fill="#8593A8"/>
<path fill-rule="evenodd" clip-rule="evenodd" d="M20 3.33334C10.8 3.33334 3.33337 10.8 3.33337 20C3.33337 29.2 10.8 36.6667 20 36.6667C29.2 36.6667 36.6667 29.2 36.6667 20C36.6667 10.8 29.2 3.33334 20 3.33334ZM11.7834 30.4667C12.5 28.9667 16.8667 27.5 20 27.5C23.1334 27.5 27.5167 28.9667 28.2167 30.4667C25.95 32.2667 23.1 33.3333 20 33.3333C16.9 33.3333 14.05 32.2667 11.7834 30.4667ZM20 24.1667C22.4334 24.1667 28.2167 25.15 30.6 28.05C32.3 25.8167 33.3334 23.0333 33.3334 20C33.3334 12.65 27.35 6.66667 20 6.66667C12.65 6.66667 6.66671 12.65 6.66671 20C6.66671 23.0333 7.70004 25.8167 9.40004 28.05C11.7834 25.15 17.5667 24.1667 20 24.1667Z" fill="#8593A8"/>
<path fill-rule="evenodd" clip-rule="evenodd" d="M14.1666 15.8333C14.1666 12.6 16.7666 10 20 10C23.2333 10 25.8333 12.6 25.8333 15.8333C25.8333 19.0667 23.2333 21.6667 20 21.6667C16.7666 21.6667 14.1666 19.0667 14.1666 15.8333ZM17.5 15.8333C17.5 17.2167 18.6166 18.3333 20 18.3333C21.3833 18.3333 22.5 17.2167 22.5 15.8333C22.5 14.45 21.3833 13.3333 20 13.3333C18.6166 13.3333 17.5 14.45 17.5 15.8333Z" fill="#8593A8"/>
</svg>
