<svg width="40" height="40" viewBox="0 0 40 40" fill="none" xmlns="http://www.w3.org/2000/svg">
<path opacity="0.5" d="M33.333 31.667H20V28.333H23.333V25H20V21.667H23.333V18.333H20V15H33.333V31.667ZM26.667 25V28.333H30V25H26.667ZM26.667 21.667H30V18.333H26.667V21.667Z" fill="#8593A8"/>
<path d="M20.0002 11.667H36.6663V35H3.33325V5H20.0002V11.667ZM6.66626 31.667H10.0002V28.333H6.66626V31.667ZM13.3333 31.667H16.6663V28.333H13.3333V31.667ZM20.0002 15V18.333H23.3333V21.667H20.0002V25H23.3333V28.333H20.0002V31.667H33.3333V15H20.0002ZM6.66626 25H10.0002V21.667H6.66626V25ZM13.3333 25H16.6663V21.667H13.3333V25ZM6.66626 18.333H10.0002V15H6.66626V18.333ZM13.3333 18.333H16.6663V15H13.3333V18.333ZM6.66626 11.667H10.0002V8.33301H6.66626V11.667ZM13.3333 11.667H16.6663V8.33301H13.3333V11.667Z" fill="#8593A8"/>
<path d="M26.6667 18.3333H30.0001V21.6666H26.6667V18.3333Z" fill="#8593A8"/>
<path d="M26.6667 25H30.0001V28.3333H26.6667V25Z" fill="#8593A8"/>
</svg>
