<?xml version="1.0" encoding="UTF-8" standalone="no"?>
<svg width="64px" height="64px" viewBox="0 0 64 64" version="1.1" xmlns="http://www.w3.org/2000/svg" xmlns:xlink="http://www.w3.org/1999/xlink">
    <!-- Generator: sketchtool 39.1 (31720) - http://www.bohemiancoding.com/sketch -->
    <title>4057E0B6-467B-407E-8669-E5EB8BDD0DD1</title>
    <desc>Created with sketchtool.</desc>
    <defs></defs>
    <g id="Basic" stroke="none" stroke-width="1" fill="none" fill-rule="evenodd">
        <g id="Icons" transform="translate(-49.000000, -1054.000000)">
            <g id="OtherSVGIcons" transform="translate(49.000000, 970.000000)">
                <g id="site-reach" transform="translate(0.000000, 84.000000)">
                    <g id="Group-9" transform="translate(4.000000, 4.000000)">
                        <path d="M54.1333333,56 L1.86666667,56 C0.836266667,56 0,55.1637333 0,54.1333333 L0,1.86666667 C0,0.836266667 0.836266667,0 1.86666667,0 L54.1333333,0 C55.1637333,0 56,0.836266667 56,1.86666667 L56,54.1333333 C56,55.1637333 55.1637333,56 54.1333333,56 L54.1333333,56 Z M52.2666667,5.60186667 C52.2666667,4.56773333 51.4304,3.73146667 50.4,3.73146667 L5.6,3.73146667 C4.56773333,3.73146667 3.73333333,4.56773333 3.73333333,5.60186667 L3.73333333,14.9352 L52.2666667,14.9352 L52.2666667,5.60186667 L52.2666667,5.60186667 Z M52.2666667,18.6666667 L3.73333333,18.6666667 L3.73333333,50.3981333 C3.73333333,51.4304 4.5696,52.2685333 5.6,52.2685333 L50.4,52.2685333 C51.4304,52.2685333 52.2666667,51.4304 52.2666667,50.3981333 L52.2666667,18.6666667 L52.2666667,18.6666667 Z M11.2,11.2 L7.46666667,11.2 L7.46666667,7.46666667 L11.2,7.46666667 L11.2,11.2 L11.2,11.2 Z M18.6666667,11.2 L14.9333333,11.2 L14.9333333,7.46666667 L18.6666667,7.46666667 L18.6666667,11.2 L18.6666667,11.2 Z M26.1333333,11.2 L22.4,11.2 L22.4,7.46666667 L26.1333333,7.46666667 L26.1333333,11.2 L26.1333333,11.2 Z" id="Shape" fill="#8493A8"></path>
                        <polygon id="Path" fill="#1CA5F0" points="25.2018667 44.7757333 25.1906667 44.7850667 14.9482667 36.4093333 17.7426667 33.6168 24.9218667 39.4856 38.2573333 26.1501333 41.0536 28.9464 25.2112 44.7850667"></polygon>
                    </g>
                </g>
            </g>
        </g>
    </g>
</svg>