<?xml version="1.0" encoding="UTF-8" standalone="no"?>
<svg width="64px" height="64px" viewBox="0 0 64 64" version="1.1" xmlns="http://www.w3.org/2000/svg" xmlns:xlink="http://www.w3.org/1999/xlink">
    <!-- Generator: sketchtool 39.1 (31720) - http://www.bohemiancoding.com/sketch -->
    <title>DE3CE1E1-9050-44B1-A099-4B5CD6929223</title>
    <desc>Created with sketchtool.</desc>
    <defs></defs>
    <g id="Basic" stroke="none" stroke-width="1" fill="none" fill-rule="evenodd">
        <g id="Icons" transform="translate(-133.000000, -1054.000000)">
            <g id="OtherSVGIcons" transform="translate(49.000000, 970.000000)">
                <g id="stopwatch" transform="translate(84.000000, 84.000000)">
                    <g id="Group-10" transform="translate(7.000000, 4.000000)">
                        <path d="M48.530098,31.7330845 C48.530098,45.1348577 37.6649557,56 24.265049,56 C10.8651423,56 0,45.1348577 0,31.7330845 C0,18.9715352 9.88520765,8.6234251 22.3985068,7.65655623 L22.3985068,3.734951 L16.7988801,3.734951 C15.7666822,3.734951 14.9323378,2.90060663 14.9323378,1.86840877 C14.9323378,0.836210919 15.7685488,0.00373308446 16.7988801,0.00373308446 L24.2575828,0.00373308446 C24.2594494,0.00186654223 24.2613159,0 24.265049,0 C24.2687821,0 24.2706486,0.00186654223 24.2743817,0.00373308446 L31.7312179,0.00373308446 C32.7615492,0.00373308446 33.5977601,0.836210919 33.5977601,1.86840877 C33.5977601,2.90060663 32.7615492,3.734951 31.7312179,3.734951 L26.1315912,3.734951 L26.1315912,7.65655623 C38.6448903,8.6234251 48.530098,18.9715352 48.530098,31.7330845 L48.530098,31.7330845 Z M24.265049,11.2029865 C12.9258049,11.2029865 3.73308446,20.395707 3.73308446,31.7330845 C3.73308446,43.0723285 12.9258049,52.2669155 24.265049,52.2669155 C35.604293,52.2669155 44.7970135,43.0723285 44.7970135,31.7330845 C44.7970135,20.395707 35.604293,11.2029865 24.265049,11.2029865 L24.265049,11.2029865 Z M33.5977601,45.6966869 L33.5977601,41.0676622 L33.390574,41.0676622 C35.8170789,38.695287 37.3308446,35.3952403 37.3308446,31.734951 C37.3308446,24.5207653 31.4811013,18.6691554 24.265049,18.6691554 L24.265049,14.9379375 C33.5436304,14.9379375 41.0639291,22.4563696 41.0639291,31.734951 C41.0639291,37.5566962 38.0979935,42.6803546 33.5977601,45.6966869 L33.5977601,45.6966869 Z M26.1315912,31.7330845 L26.1315912,46.6672888 C26.1315912,47.6976202 25.2953803,48.5319645 24.265049,48.5319645 C23.2347177,48.5319645 22.3985068,47.6976202 22.3985068,46.6672888 L22.3985068,31.7330845 C22.3985068,30.7008866 23.2347177,29.8665422 24.265049,29.8665422 C25.2953803,29.8665422 26.1315912,30.7008866 26.1315912,31.7330845 L26.1315912,31.7330845 Z M24.265049,48.5338311 L24.265049,48.5338311 L24.2743817,48.5319645 C24.2706486,48.5338311 24.2669155,48.5338311 24.265049,48.5338311 L24.265049,48.5338311 Z" id="Shape" fill="#8493A8"></path>
                        <path d="M33.5977601,45.6966869 L33.5977601,41.0676622 L33.390574,41.0676622 C35.8170789,38.695287 37.3308446,35.3952403 37.3308446,31.734951 C37.3308446,24.5207653 31.4811013,18.6691554 24.265049,18.6691554 L24.265049,14.9379375 C33.5436304,14.9379375 41.0639291,22.4563696 41.0639291,31.734951 C41.0639291,37.5566962 38.0979935,42.6803546 33.5977601,45.6966869 L33.5977601,45.6966869 Z" id="Path" fill="#1CA5F0"></path>
                        <path d="M26.1315912,31.7330845 L26.1315912,46.6672888 C26.1315912,47.6976202 25.2953803,48.5319645 24.265049,48.5319645 C23.2347177,48.5319645 22.3985068,47.6976202 22.3985068,46.6672888 L22.3985068,31.7330845 C22.3985068,30.7008866 23.2347177,29.8665422 24.265049,29.8665422 C25.2953803,29.8665422 26.1315912,30.7008866 26.1315912,31.7330845 L26.1315912,31.7330845 Z" id="Path" fill="#1CA5F0"></path>
                    </g>
                </g>
            </g>
        </g>
    </g>
</svg>