<?xml version="1.0" encoding="UTF-8" standalone="no"?>
<svg width="64px" height="64px" viewBox="0 0 64 64" version="1.1" xmlns="http://www.w3.org/2000/svg" xmlns:xlink="http://www.w3.org/1999/xlink">
    <!-- Generator: sketchtool 39.1 (31720) - http://www.bohemiancoding.com/sketch -->
    <title>E0BBB645-EA2C-4145-B296-D6E7034285D3</title>
    <desc>Created with sketchtool.</desc>
    <defs></defs>
    <g id="Basic" stroke="none" stroke-width="1" fill="none" fill-rule="evenodd">
        <g id="Icons" transform="translate(-973.000000, -970.000000)">
            <g id="OtherSVGIcons" transform="translate(49.000000, 970.000000)">
                <g id="link-click" transform="translate(924.000000, 0.000000)">
                    <g id="Group" transform="translate(4.000000, 12.000000)">
                        <path d="M34.8842667,27.7259079 L5.97916667,27.7259079 C3.97727248,27.7259079 2.33333333,25.9967363 2.33333333,23.9144632 L2.33333333,8.24116014 C2.33333333,6.2197115 3.91780064,4.65717938 5.97916667,4.65717938 L49.8624,4.65717938 C51.9659538,4.65717938 53.6666667,6.26096689 53.6666667,8.24116014 L53.6666667,23.9144632 C53.6666667,25.9543676 51.9053863,27.7259079 49.8624,27.7259079 L43.8316667,27.7259079 L43.8316667,30.0592412 L49.8624,30.0592412 C53.1970943,30.0592412 56,27.2400079 56,23.9144632 L56,8.24116014 C56,4.94069582 53.2250002,2.32384605 49.8624,2.32384605 L5.97916667,2.32384605 C2.63636125,2.32384605 8.48861722e-12,4.92370981 8.48861722e-12,8.24116014 L8.48861722e-12,23.9144632 C8.48861722e-12,27.2597602 2.66149195,30.0592412 5.97916667,30.0592412 L34.8842667,30.0592412 L34.8842667,27.7259079 L34.8842667,27.7259079 Z" id="Shape" fill="#8493A8"></path>
                        <path d="M11.456,22.3333333 L18.192,22.3333333 L18.192,20.8933333 L12.992,20.8933333 L12.992,11.0053333 L11.456,11.0053333 L11.456,22.3333333 Z M19.76,22.3333333 L21.296,22.3333333 L21.296,11.0053333 L19.76,11.0053333 L19.76,22.3333333 Z M24.208,22.3333333 L25.744,22.3333333 L25.744,13.0213333 L25.776,13.0213333 L32.08,22.3333333 L34.032,22.3333333 L34.032,11.0053333 L32.496,11.0053333 L32.496,20.3173333 L32.464,20.3173333 L26.224,11.0053333 L24.208,11.0053333 L24.208,22.3333333 Z M36.944,22.3333333 L38.48,22.3333333 L38.48,16.6693333 L38.608,16.6693333 L43.888,22.3333333 L46.128,22.3333333 L40.288,16.2373333 L45.76,11.0053333 L43.616,11.0053333 L38.608,15.9013333 L38.48,15.9013333 L38.48,11.0053333 L36.944,11.0053333 L36.944,22.3333333 Z" id="LINK" fill="#1CA5F0"></path>
                        <path d="M47.8095378,36.8482172 L44.4101044,32.4081677 L43.7073477,34.2624419 L46.7598144,33.6664172 C48.1667257,33.391868 48.6600066,31.629085 47.5863462,30.6697325 L35.2314977,19.6857837 C34.0111617,18.593177 32.0676508,19.6543559 32.3578465,21.283496 L35.1787157,37.2854327 C35.4150981,38.6680578 37.12615,39.2007129 38.1206392,38.2164762 L40.5643115,35.79407 L38.73168,35.5472454 L41.78298,40.8516577 C42.2935644,41.7304376 43.4325305,41.9864854 44.2642831,41.4292138 L47.3931905,39.3430916 C48.2285942,38.7890967 48.4194168,37.6426017 47.808596,36.8469888 L47.8095378,36.8482172 Z M45.957804,38.2679088 C45.7453991,37.9912448 45.8118516,37.5919869 46.1012178,37.4000932 L42.9677095,39.4892823 C43.2478455,39.3015884 43.6309802,39.3877199 43.8030187,39.6838125 L40.7542533,34.3837842 L39.9983088,33.0696423 L38.9216218,34.1369596 L36.4786218,36.5586998 C36.8182229,36.2225992 37.3948646,36.4021094 37.4776455,36.8862713 L34.6553843,20.8763597 C34.7561629,21.4421133 34.0970705,21.8019852 33.6781222,21.4268904 L46.0338357,32.4116128 C45.6625114,32.0798267 45.8331887,31.469896 46.3127811,31.3763068 L43.2601856,31.9723567 L41.4137743,32.332887 L42.5574289,33.8266309 L45.9568622,38.2666804 L45.957804,38.2679088 Z" id="Shape" fill="#8493A8"></path>
                    </g>
                </g>
            </g>
        </g>
    </g>
</svg>