<?xml version="1.0" encoding="UTF-8" standalone="no"?>
<svg width="64px" height="64px" viewBox="0 0 64 64" version="1.1" xmlns="http://www.w3.org/2000/svg" xmlns:xlink="http://www.w3.org/1999/xlink">
    <!-- Generator: sketchtool 39.1 (31720) - http://www.bohemiancoding.com/sketch -->
    <title>399AAFAF-6B10-487C-ACA5-60A35B78592D</title>
    <desc>Created with sketchtool.</desc>
    <defs></defs>
    <g id="Basic" stroke="none" stroke-width="1" fill="none" fill-rule="evenodd">
        <g id="Icons" transform="translate(-889.000000, -970.000000)">
            <g id="OtherSVGIcons" transform="translate(49.000000, 970.000000)">
                <g id="checked-document" transform="translate(840.000000, 0.000000)">
                    <g id="Group-7" transform="translate(8.000000, 2.000000)">
                        <path d="M0,56 L0,7 L12.25,7 L12.25,3.50175 L17.5,3.50175 C17.5,1.568 19.06625,0 21,0 L28,0 C29.93375,0 31.5,1.568 31.5,3.50175 L36.75,3.50175 L36.75,7 L49,7 L49,56 L0,56 L0,56 Z M33.25,7 L28,7 L28,5.25175 C28,4.28225 27.216,3.50175 26.25,3.50175 L22.75,3.50175 C21.78225,3.50175 21,4.28225 21,5.25175 L21,7 L15.75,7 L15.75,14 L22.75,14 L26.25,14 L33.25,14 L33.25,7 L33.25,7 Z M45.5,10.5 L36.75,10.5 L36.75,17.5 L12.25,17.5 L12.25,10.5 L3.5,10.5 L3.5,52.5 L45.5,52.5 L45.5,10.5 L45.5,10.5 Z" id="Shape" fill="#8493A8"></path>
                        <path d="M16.8735,35.49875 L22.51725,41.14075 L35.41475,24.99875 C36.113,24.3005 37.24525,24.3005 37.94525,24.99875 C38.64525,25.697 38.6435,26.82925 37.94525,27.5275 L24.02925,44.94525 C24.02925,44.94525 24.02575,44.94525 24.02575,44.947 C24.01175,44.961 24.01875,44.9855 24.003,44.9995 C23.34675,45.65575 22.28275,45.65575 21.6265,44.9995 L21.62125,44.996 C21.58625,44.9645 21.53375,44.9785 21.5005,44.94525 C21.46725,44.91025 21.48125,44.85775 21.44975,44.82275 L14.49875,37.87525 C13.8425,37.21725 13.8425,36.155 14.49875,35.49875 C15.15325,34.84075 16.21725,34.84075 16.8735,35.49875 L16.8735,35.49875 Z" id="Path" fill="#1CA5F0"></path>
                    </g>
                </g>
            </g>
        </g>
    </g>
</svg>