<?xml version="1.0" encoding="utf-8"?>
<!-- Generator: Adobe Illustrator 16.0.0, SVG Export Plug-In . SVG Version: 6.00 Build 0)  -->
<!DOCTYPE svg PUBLIC "-//W3C//DTD SVG 1.1//EN" "http://www.w3.org/Graphics/SVG/1.1/DTD/svg11.dtd">
<svg version="1.1" id="Layer_1" xmlns="http://www.w3.org/2000/svg" xmlns:xlink="http://www.w3.org/1999/xlink" x="0px" y="0px"
	 width="64px" height="64px" viewBox="0 0 64 64" enable-background="new 0 0 64 64" xml:space="preserve">
<title>4057E0B6-467B-407E-8669-E5EB8BDD0DD1</title>
<desc>Created with sketchtool.</desc>
<g id="Basic">
	<g id="Icons" transform="translate(-49.000000, -1054.000000)">
		<g id="OtherSVGIcons" transform="translate(49.000000, 970.000000)">
			<g id="site-reach" transform="translate(0.000000, 84.000000)">
				<g id="Group-9" transform="translate(4.000000, 4.000000)">
					<path id="Shape" fill="#8493A8" d="M54.133,56H1.867C0.836,56,0,55.164,0,54.133V1.867C0,0.836,0.836,0,1.867,0h52.266
						C55.164,0,56,0.836,56,1.867v52.266C56,55.164,55.164,56,54.133,56L54.133,56z M52.267,5.602c0-1.034-0.837-1.871-1.866-1.871
						H5.6c-1.032,0-1.867,0.836-1.867,1.871v9.333h48.533V5.602L52.267,5.602z M52.267,18.667H3.733v31.732
						c0,1.031,0.836,1.87,1.867,1.87h44.8c1.029,0,1.866-0.839,1.866-1.87V18.667L52.267,18.667z M11.2,11.2H7.467V7.467H11.2V11.2
						L11.2,11.2z M18.667,11.2h-3.733V7.467h3.733V11.2L18.667,11.2z M26.133,11.2H22.4V7.467h3.733V11.2L26.133,11.2z"/>
				</g>
			</g>
		</g>
	</g>
</g>
<g id="Bullet_7_-_Blue">
	<g id="Bullet_3_-_Previous">
	</g>
	<g>
		<path fill="#1CA5F0" d="M24.175,30.787c0-1.954,1.384-2.752,3.076-1.776l12.306,7.104c1.691,0.978,1.691,2.575,0,3.553
			l-12.306,7.104c-1.692,0.979-3.076,0.178-3.076-1.775V30.787z"/>
	</g>
</g>
</svg>
