<?xml version="1.0" encoding="UTF-8" standalone="no"?>
<svg width="64px" height="64px" viewBox="0 0 64 64" version="1.1" xmlns="http://www.w3.org/2000/svg" xmlns:xlink="http://www.w3.org/1999/xlink">
    <!-- Generator: sketchtool 39.1 (31720) - http://www.bohemiancoding.com/sketch -->
    <title>B188E263-E781-49A4-830D-B33A6152B676</title>
    <desc>Created with sketchtool.</desc>
    <defs></defs>
    <g id="Basic" stroke="none" stroke-width="1" fill="none" fill-rule="evenodd">
        <g id="Icons" transform="translate(-1057.000000, -970.000000)">
            <g id="OtherSVGIcons" transform="translate(49.000000, 970.000000)">
                <g id="funnel" transform="translate(1008.000000, 0.000000)">
                    <g id="Group-8" transform="translate(4.000000, 5.000000)">
                        <path d="M1.75,55.99825 C0.78225,55.99825 0,55.216 0,54.24825 C0,53.2805 0.78225,52.49825 1.75,52.49825 L7,52.49825 L10.5,43.74825 L11,42.4982491 L11.2,41.9965 L28,-1.13686838e-13 L44.8,41.9965 L45,42.4982491 L45.5,43.74825 L49,52.49825 L54.25,52.49825 C55.216,52.49825 56,53.2805 56,54.24825 C56,55.216 55.216,55.99825 54.25,55.99825 L1.75,55.99825 Z M28,7 L23.95925,17.5 L32.03725,17.5 L28,7 L28,7 Z M33.25,20.64825 L33.25,20.99825 L22.75,20.99825 L22.75,20.64825 L21.26775,24.49825 L34.72875,24.49825 L33.25,20.64825 L33.25,20.64825 Z M36.07625,27.9965 L19.92375,27.9965 L17.2305,34.99825 L38.7695,34.99825 L36.07625,27.9965 L36.07625,27.9965 Z M40.11525,38.4965 L15.88475,38.4965 L14.53725,41.9965 L41.45925,41.9965 L40.11525,38.4965 L40.11525,38.4965 Z M13.1915,45.49825 L10.5,52.49825 L45.5,52.49825 L42.80675,45.49825 L13.1915,45.49825 Z" id="Shape" fill="#8493A8" transform="translate(28.000000, 27.999125) rotate(-180.000000) translate(-28.000000, -27.999125) "></path>
                        <polygon id="Path" fill="#1CA5F0" points="14 14 16.3333333 18.6666667 39.6666667 18.6666667 42 14"></polygon>
                        <polygon id="Path-Copy" fill="#1CA5F0" points="19.8333333 30.3333333 22.1666667 35 33.3666382 35 35.6999715 30.3333333"></polygon>
                    </g>
                </g>
            </g>
        </g>
    </g>
</svg>