<?xml version="1.0" encoding="UTF-8" standalone="no"?>
<svg width="64px" height="64px" viewBox="0 0 64 64" version="1.1" xmlns="http://www.w3.org/2000/svg" xmlns:xlink="http://www.w3.org/1999/xlink">
    <!-- Generator: sketchtool 39.1 (31720) - http://www.bohemiancoding.com/sketch -->
    <title>E6015A54-DA56-4228-8AC0-8D039D824B10</title>
    <desc>Created with sketchtool.</desc>
    <defs></defs>
    <g id="Basic" stroke="none" stroke-width="1" fill="none" fill-rule="evenodd">
        <g id="Icons" transform="translate(-637.000000, -970.000000)">
            <g id="OtherSVGIcons" transform="translate(49.000000, 970.000000)">
                <g id="visitor" transform="translate(588.000000, 0.000000)">
                    <g id="Group" transform="translate(3.000000, 12.000000)">
                        <polygon id="Shape" fill="#8493A8" points="31.6755796 27.0305224 1.93262757 27.0305224 3.13219167 28.2300865 3.13219167 1.83967626 1.93262757 3.03924036 55.9130122 3.03924036 55.9130122 0.640112156 1.93262757 0.640112156 0.733063468 0.640112156 0.733063468 1.83967626 0.733063468 28.2300865 0.733063468 29.4296506 1.93262757 29.4296506 31.6755796 29.4296506"></polygon>
                        <polygon id="Shape" fill="#8493A8" points="55.9130122 27.0305224 36.9620586 27.0305224 36.9620586 29.4296506 55.9130122 29.4296506"></polygon>
                        <path d="M45.6138163,40.5654974 L42.138919,35.9798037 L41.4150525,37.8811617 L44.5351187,37.2655454 C45.9755786,36.9817074 46.4802444,35.1732767 45.385783,34.1846375 L32.757188,22.8403001 C31.5026339,21.7053222 29.5079113,22.8055346 29.8033249,24.4793013 L32.6866686,41.0060077 C32.9291715,42.4304066 34.6885776,42.9843285 35.7103216,41.9625846 L38.2080261,39.460801 L36.3166584,39.2067713 L39.435525,44.6849406 C39.9593039,45.59582 41.1336233,45.8602257 41.9892916,45.2811296 L45.1876198,43.1264569 C46.0396328,42.5552992 46.2332254,41.3813573 45.6131535,40.5646236 L45.6138163,40.5654974 Z M43.7023308,42.0153381 C43.4889932,41.7343383 43.5552755,41.3324035 43.8494442,41.1352024 L40.6467294,43.2928296 C40.9384232,43.0954149 41.3411174,43.1860841 41.5178729,43.4934639 L38.4015703,38.0197758 L37.6225954,36.6515363 L36.5102025,37.765746 L34.0131899,40.2668372 C34.3659595,39.914067 34.9665961,40.1031681 35.0509299,40.5985027 L32.1663449,24.0646365 C32.2679185,24.6401228 31.5861957,25.0161349 31.1507952,24.6222375 L43.7800597,35.96718 C43.4043533,35.6278064 43.5770181,35.0090755 44.0710002,34.9117379 L40.9506373,35.5274127 L39.0675318,35.8989658 L40.2267708,37.4287707 L43.701668,42.0144643 L43.7023308,42.0153381 Z" id="Shape" fill="#8493A8"></path>
                        <polygon id="Shape" fill="#1CA5F0" points="14.0799946 17.3848435 15.2124694 20.4150291 16.3294368 17.379093 18.7729489 10.7375864 16.5235067 10.7433369 19.0056447 17.3848435 20.1381195 20.4150291 21.2550869 17.379093 23.698599 10.7375864 21.4470244 9.9091976 19.0035123 16.5507042 21.2529545 16.5449538 18.7708165 9.90344714 16.5213743 9.9091976 14.0778622 16.5507042 16.3273044 16.5449538 13.8451664 9.90344714 11.5978566 10.7433369"></polygon>
                        <polygon id="Shape" fill="#1CA5F0" points="27.0213587 17.3848079 28.1537925 20.4151767 29.2708142 17.379093 31.7143263 10.7375864 29.4648841 10.7433369 31.9470221 17.3848435 33.0794969 20.4150291 34.1964643 17.379093 36.6399764 10.7375864 34.3884018 9.9091976 31.9448897 16.5507042 34.1943319 16.5449538 31.7121939 9.90344714 29.4627517 9.9091976 27.0192396 16.5507042 29.2686951 16.5449894 26.786797 9.90348276 24.5394605 10.7433013"></polygon>
                        <polygon id="Shape" fill="#1CA5F0" points="39.7583303 17.3848079 40.8907641 20.4151767 42.0077858 17.379093 44.4512979 10.7375864 42.2018557 10.7433369 44.6839938 17.3848435 45.8164686 20.4150291 46.933436 17.379093 49.376948 10.7375864 47.1253734 9.9091976 44.6818614 16.5507042 46.9313036 16.5449538 44.4491655 9.90344714 42.1997233 9.9091976 39.7562112 16.5507042 42.0056668 16.5449894 39.5237686 9.90348276 37.2764322 10.7433013"></polygon>
                    </g>
                </g>
            </g>
        </g>
    </g>
</svg>