<?xml version="1.0" encoding="utf-8"?>
<!-- Generator: Adobe Illustrator 16.0.0, SVG Export Plug-In . SVG Version: 6.00 Build 0)  -->
<!DOCTYPE svg PUBLIC "-//W3C//DTD SVG 1.1//EN" "http://www.w3.org/Graphics/SVG/1.1/DTD/svg11.dtd">
<svg version="1.1" id="Layer_1" xmlns="http://www.w3.org/2000/svg" xmlns:xlink="http://www.w3.org/1999/xlink" x="0px" y="0px"
	 width="64px" height="64px" viewBox="0 0 64 64" enable-background="new 0 0 64 64" xml:space="preserve">
<title>D1570D64-8904-4CEE-A67D-1DF297886254</title>
<g>
	<g>
		<g>
			<path fill="#8493A8" d="M32.705,5.333c-15.071,0-27.333,12.261-27.333,27.333C5.373,47.736,17.634,60,32.705,60
				s27.334-12.262,27.334-27.334C60.039,17.594,47.776,5.333,32.705,5.333z M32.705,55.57c-12.627,0-22.904-10.276-22.904-22.904
				c0-12.628,10.274-22.904,22.904-22.904c12.63,0,22.904,10.274,22.904,22.904C55.607,45.294,45.333,55.57,32.705,55.57z"/>
			<path fill="#1CA5F0" d="M32.705,15.836c-9.28,0-16.829,7.549-16.829,16.83c0,9.279,7.549,16.83,16.829,16.83
				c9.279,0,16.828-7.551,16.828-16.83C49.536,23.387,41.984,15.836,32.705,15.836z M32.705,45.063c-6.838,0-12.4-5.56-12.4-12.399
				c0-6.838,5.564-12.401,12.4-12.401c6.838,0,12.398,5.563,12.398,12.401C45.104,39.504,39.543,45.063,32.705,45.063z"/>
			<circle fill="#8493A8" cx="32.705" cy="32.666" r="6.515"/>
		</g>
	</g>
</g>
<g>
	<path fill="#8493A8" d="M53.827,59.157c-0.252-0.327-0.188-0.791,0.144-1.039c0.011-0.01,0.022-0.018,0.036-0.027l-3.93,2.612
		c0.346-0.228,0.813-0.138,1.043,0.202c0.01,0.014,0.018,0.027,0.025,0.041l-3.822-6.629l-0.957-1.654l-1.365,1.35l-3.063,3.025
		c0.292-0.289,0.768-0.29,1.063-0.002c0.111,0.109,0.187,0.251,0.211,0.406l-3.539-20.021c0.125,0.698-0.713,1.15-1.246,0.676
		l15.498,13.736c-0.309-0.275-0.332-0.743-0.055-1.047c0.107-0.119,0.252-0.2,0.41-0.23l-3.828,0.746l-2.311,0.448l1.421,1.854
		l4.265,5.551V59.157L53.827,59.157z"/>
	<path fill="#FFFFFF" d="M55.788,57.106l-3.961-5.226l-0.826,2.166l3.559-0.7c1.641-0.324,2.218-2.387,0.969-3.513L41.132,36.901
		c-1.43-1.295-3.705-0.039-3.366,1.869l3.286,18.84c0.275,1.623,2.281,2.256,3.447,1.091l2.848-2.853l-2.155-0.289l3.556,6.246
		c0.558,0.978,1.803,1.317,2.779,0.758c0.045-0.023,0.09-0.051,0.131-0.08l3.647-2.457c0.933-0.629,1.179-1.894,0.551-2.825
		C55.833,57.17,55.812,57.14,55.788,57.106z M53.608,58.763c-0.232-0.309-0.175-0.746,0.133-0.979
		c0.012-0.009,0.022-0.017,0.035-0.025l-3.65,2.46c0.32-0.215,0.754-0.129,0.969,0.19c0.009,0.013,0.016,0.024,0.023,0.038
		l-3.552-6.24l-0.889-1.559l-1.269,1.27l-2.847,2.85c0.271-0.271,0.713-0.272,0.985-0.002c0.104,0.104,0.174,0.236,0.197,0.383
		l-3.289-18.851c0.115,0.657-0.662,1.084-1.158,0.636l14.4,12.935c-0.289-0.259-0.311-0.699-0.053-0.985
		c0.102-0.111,0.234-0.188,0.381-0.218l-3.556,0.702l-2.146,0.423l1.319,1.745l3.962,5.227v0.002H53.608z"/>
</g>
</svg>
